<svg version="1.1" id="Layer_1" xmlns="http://www.w3.org/2000/svg" xmlns:xlink="http://www.w3.org/1999/xlink" x="0px" y="0px"
	 width="100%" viewBox="0 0 1024 1008" enable-background="new 0 0 1024 1008" xml:space="preserve">
<path fill="#000000" opacity="1.000000" stroke="none" 
	d="
M648.383301,294.370422 
	C643.101746,303.376831 635.361816,304.620819 625.818481,304.587128 
	C530.682983,304.251160 435.545746,304.382416 340.408997,304.380096 
	C332.669708,304.379883 332.661957,304.374268 332.661194,296.869415 
	C332.659119,275.376160 332.797058,253.881454 332.559296,232.390869 
	C332.508667,227.814178 334.012756,225.968979 338.417572,226.142700 
	C340.079773,226.208267 341.748474,226.088287 343.414215,226.088455 
	C436.051727,226.097626 528.689514,225.992310 621.326599,226.200638 
	C646.642883,226.257553 671.957336,226.902176 697.274780,226.241882 
	C698.915955,226.199081 700.873352,226.016327 701.598328,227.933868 
	C702.477844,230.260300 701.993408,232.513962 700.319458,234.457108 
	C694.451538,241.269073 688.624268,248.116257 682.731567,254.906693 
	C671.379272,267.988647 659.992920,281.040985 648.383301,294.370422 
z"/>
<path fill="#000000" opacity="1.000000" stroke="none" 
	d="
M332.669373,479.999939 
	C332.669098,446.408813 332.669098,413.317719 332.669098,380.226624 
	C333.123291,379.990509 333.577515,379.754364 334.031708,379.518250 
	C358.524384,403.759064 383.017029,427.999908 407.891113,452.618225 
	C409.499268,449.612122 409.067230,447.097382 409.071228,444.710968 
	C409.104675,424.715393 409.161682,404.718964 408.988464,384.724701 
	C408.950836,380.380219 409.981903,378.584076 414.816620,378.598663 
	C465.972534,378.753021 517.129089,378.678864 568.285522,378.680908 
	C569.928101,378.680969 571.570679,378.822388 573.100891,378.892761 
	C574.017334,381.053680 572.429504,381.900726 571.524475,382.944885 
	C551.344177,406.227234 531.109253,429.462341 510.973511,452.783142 
	C508.672058,455.448608 506.085297,456.291351 502.669891,456.278564 
	C474.175964,456.171906 445.680878,456.293549 417.187866,456.097015 
	C412.535217,456.064941 410.216370,457.421234 410.534851,462.195770 
	C411.368042,474.685608 410.499146,487.171021 410.502930,499.657898 
	C410.509277,520.814575 410.672241,541.972351 410.962585,563.127014 
	C411.014832,566.932861 409.739746,569.689758 407.291321,572.489380 
	C383.829865,599.316284 360.482697,626.243103 337.105072,653.143311 
	C336.154144,654.237549 335.490723,655.727356 332.669647,655.533630 
	C332.669647,597.214600 332.669647,538.857300 332.669373,479.999939 
z"/>
<path fill="#000000" opacity="1.000000" stroke="none" 
	d="
M614.872253,754.008240 
	C612.093567,744.949280 608.264282,736.628174 606.183472,727.764587 
	C615.083435,724.986450 617.183167,726.086121 619.519470,734.160767 
	C621.124817,739.708618 622.848267,745.222290 625.530396,750.841248 
	C627.224731,745.400208 629.014648,739.986633 630.591431,734.511719 
	C633.076172,725.884094 634.700073,724.972473 643.671631,727.587524 
	C644.448425,729.130920 643.669067,730.543396 643.188232,731.913086 
	C638.889038,744.158264 634.652527,756.427612 630.159790,768.602051 
	C626.942383,777.320251 620.788818,781.091797 612.956482,779.585144 
	C611.238770,779.254761 608.708984,779.347961 609.060242,776.783630 
	C609.399414,774.307312 609.427917,771.238220 612.464478,770.076050 
	C619.535706,767.369751 619.552917,767.414551 616.975342,760.037415 
	C616.316406,758.151794 615.656738,756.266418 614.872253,754.008240 
z"/>
<path fill="#000000" opacity="1.000000" stroke="none" 
	d="
M393.650482,723.059326 
	C393.657867,721.069092 393.739349,719.565796 393.656708,718.071533 
	C393.506073,715.347717 394.765198,714.031555 397.454437,714.026184 
	C406.282959,714.008545 415.111481,713.995911 423.940002,713.981567 
	C427.731171,713.975403 428.039795,716.522949 428.054626,719.431213 
	C428.069855,722.418091 427.026764,724.199036 423.732910,724.164673 
	C418.902771,724.114258 414.066193,724.323486 409.242126,724.150085 
	C405.137299,724.002563 405.251312,726.598877 405.267273,729.418579 
	C405.282898,732.181580 405.002319,734.910706 409.153717,734.764954 
	C413.312531,734.618896 417.483398,734.847717 421.645569,734.756287 
	C425.443634,734.672913 425.312408,737.189758 425.340271,739.811401 
	C425.367493,742.371887 425.164307,744.504517 421.735321,744.401917 
	C418.074127,744.292419 414.385071,744.652710 410.747070,744.346436 
	C406.223175,743.965454 404.838409,745.851624 405.203003,750.142822 
	C405.512115,753.780823 405.120819,757.472717 405.276947,761.130615 
	C405.483826,765.977173 402.102997,765.216736 399.157257,765.324951 
	C396.087219,765.437683 393.572998,765.301880 393.622131,761.032288 
	C393.765900,748.539856 393.659149,736.044495 393.650482,723.059326 
z"/>
<path fill="#000000" opacity="1.000000" stroke="none" 
	d="
M551.747437,738.891418 
	C549.659912,734.861084 546.353577,733.810669 543.469788,736.666138 
	C539.563843,740.533630 535.777649,739.278564 531.679932,737.884644 
	C532.283691,732.090637 535.609680,728.462891 541.763489,727.029053 
	C545.520813,726.153625 549.390625,726.203735 553.146667,727.032715 
	C560.664246,728.691772 564.088013,732.979919 564.215698,740.812195 
	C564.313293,746.795349 564.335510,752.785217 564.149536,758.764648 
	C564.079651,761.014160 565.446350,764.476501 561.946228,765.007751 
	C558.643860,765.509033 554.594666,766.910095 552.201599,762.420166 
	C548.104797,765.433960 543.810730,766.956238 538.671570,765.461121 
	C533.059692,763.828369 530.039978,760.776306 529.697266,755.586853 
	C529.311707,749.750305 531.461487,745.960449 536.980225,743.927673 
	C540.057312,742.794250 543.408936,742.374756 546.660339,741.757507 
	C548.604553,741.388428 550.718445,741.512573 551.747437,738.891418 
M544.763184,750.105103 
	C542.518372,750.923706 539.859436,751.907471 541.035217,754.837952 
	C542.186157,757.706299 545.013000,758.090393 547.832642,757.106934 
	C551.674744,755.766907 553.193115,753.173096 552.101135,748.884155 
	C549.718384,749.244934 547.600769,749.565491 544.763184,750.105103 
z"/>
<path fill="#000000" opacity="1.000000" stroke="none" 
	d="
M478.828644,728.918152 
	C481.987000,731.142456 483.920624,733.681335 483.978607,737.641235 
	C479.855652,739.109802 475.903992,740.919495 472.349792,736.431885 
	C471.371765,735.196960 469.710510,735.027527 468.199860,735.060547 
	C466.375946,735.100220 464.178833,735.058167 463.683441,737.291565 
	C463.149261,739.699768 465.269440,740.301208 467.033264,740.801392 
	C470.550385,741.798828 474.178314,742.459045 477.618286,743.664307 
	C486.212463,746.675537 487.907532,755.809631 481.102051,761.779907 
	C474.540161,767.536438 461.722870,767.639526 455.094086,761.948914 
	C452.880463,760.048584 451.316528,757.758240 451.305237,754.284058 
	C455.676849,753.053711 459.962799,751.029907 463.781616,755.831116 
	C464.863495,757.191223 466.822021,757.064575 468.489075,757.001465 
	C470.518066,756.924622 472.935669,756.749756 473.146912,754.262695 
	C473.341248,751.974731 470.998993,751.646179 469.240753,751.200195 
	C466.178711,750.423584 463.032623,749.912842 460.046478,748.916748 
	C454.614746,747.104736 451.735321,743.232422 451.749084,738.294189 
	C451.763000,733.295959 454.602997,729.385742 460.039490,727.690186 
	C466.254517,725.751770 472.489380,725.783081 478.828644,728.918152 
z"/>
<path fill="#000000" opacity="1.000000" stroke="none" 
	d="
M511.493225,765.946777 
	C499.837555,766.517883 491.772339,760.863586 489.945740,751.212646 
	C487.856049,740.171875 492.508820,730.712830 501.621338,727.476318 
	C510.327118,724.384216 520.488403,727.568970 523.914490,734.610657 
	C524.948608,736.736023 526.993958,739.760620 524.268799,741.252930 
	C521.537903,742.748352 517.498535,743.226013 515.034485,740.351379 
	C512.801270,737.746094 511.078583,734.664612 507.103027,735.741150 
	C503.465759,736.726074 501.910156,739.820129 501.484619,743.295898 
	C500.949921,747.663513 500.939484,752.152405 504.737610,755.249023 
	C507.409943,757.427734 510.961426,757.362671 512.712891,754.488464 
	C515.949280,749.177551 520.409668,750.669861 524.853943,750.913452 
	C525.678833,758.596313 521.536194,763.279785 511.493225,765.946777 
z"/>
<path fill="#000000" opacity="1.000000" stroke="none" 
	d="
M581.852905,764.498840 
	C581.100830,764.946106 580.630371,765.163330 580.145081,765.204102 
	C571.150574,765.958618 570.955994,765.749817 570.971069,756.628967 
	C570.991455,744.314392 571.113464,731.997192 570.895325,719.686462 
	C570.809631,714.851257 573.080261,713.900818 577.309082,713.841858 
	C581.801147,713.779175 583.131470,715.698547 583.007629,719.841736 
	C582.565674,734.619629 583.748352,749.430054 581.852905,764.498840 
z"/>
<path fill="#000000" opacity="1.000000" stroke="none" 
	d="
M589.789795,742.999939 
	C589.777649,734.674011 589.953247,726.841492 589.683716,719.024414 
	C589.525085,714.424927 592.003601,713.930969 595.622070,713.884705 
	C599.391541,713.836609 601.474060,714.670349 601.401855,719.136841 
	C601.178467,732.953735 601.166870,746.778931 601.398315,760.595398 
	C601.472229,765.002258 599.286011,765.391418 595.857056,765.373413 
	C592.359253,765.355042 589.560242,765.221252 589.758484,760.481567 
	C589.994873,754.830444 589.799072,749.161255 589.789795,742.999939 
z"/>
<path fill="#000000" opacity="1.000000" stroke="none" 
	d="
M433.661377,757.915955 
	C433.663940,748.926636 433.852692,740.422546 433.596344,731.931824 
	C433.464813,727.575989 435.359070,726.641357 439.260406,726.612000 
	C443.323547,726.581482 445.456085,727.437195 445.317444,732.107910 
	C445.045532,741.265015 445.063171,750.439941 445.297485,759.598816 
	C445.407623,763.904114 444.014099,765.509705 439.576965,765.430725 
	C435.512299,765.358337 433.042175,764.556702 433.663147,759.905151 
	C433.728668,759.414429 433.666229,758.906555 433.661377,757.915955 
z"/>
<path fill="#000000" opacity="1.000000" stroke="none" 
	d="
M436.913452,712.057983 
	C440.539948,711.099304 443.340332,711.798279 444.840485,714.997681 
	C445.812622,717.070923 445.532135,719.332031 443.740540,720.987122 
	C441.024506,723.496338 437.911896,723.894226 435.340668,721.083862 
	C432.439392,717.912842 433.017853,714.738220 436.913452,712.057983 
z"/>
</svg>